<?xml version="1.0" standalone="no"?>
<!DOCTYPE svg PUBLIC "-//W3C//DTD SVG 20010904//EN"
 "http://www.w3.org/TR/2001/REC-SVG-20010904/DTD/svg10.dtd">
<svg version="1.0" xmlns="http://www.w3.org/2000/svg"
 width="315.000000pt" height="315.000000pt" viewBox="0 0 315.000000 315.000000"
 preserveAspectRatio="xMidYMid meet">
<metadata>
Created by potrace 1.14, written by Peter Selinger 2001-2017
</metadata>
<g transform="translate(0.000000,315.000000) scale(0.100000,-0.100000)"
fill="#000000" stroke="none">
<path d="M1378 2513 c-2 -5 -3 -167 -3 -361 1 -206 -2 -348 -7 -340 -5 7 -17
29 -27 48 -44 82 -166 175 -258 194 -99 22 -236 9 -322 -31 -192 -88 -308
-272 -337 -533 -11 -107 -5 -329 11 -380 1 -3 5 -23 10 -44 30 -147 144 -314
261 -382 141 -83 333 -94 470 -28 62 30 134 98 171 162 l28 47 3 -117 3 -118
253 0 253 0 0 945 0 945 -253 0 c-139 0 -254 -3 -256 -7z m-128 -858 c41 -21
95 -89 110 -137 20 -68 24 -98 23 -188 0 -187 -75 -309 -199 -324 -147 -19
-239 105 -242 325 -2 225 90 356 241 342 21 -2 51 -10 67 -18z"/>
<path d="M2398 1115 c-2 -2 -16 -5 -33 -7 -186 -25 -275 -264 -154 -411 98
-119 281 -127 386 -16 122 129 81 339 -80 409 -38 17 -112 32 -119 25z"/>
</g>
</svg>
